<svg width="119" height="46" viewBox="0 0 119 46" fill="none" xmlns="http://www.w3.org/2000/svg">
<path d="M12.9596 19.8756C10.0597 18.1866 8.22308 17.3847 8.43252 15.6616C8.5614 14.4162 9.60859 13.8873 11.0747 14.1091C13.2496 14.3821 14.2162 15.7469 14.9412 19.3467H15.9562L15.5212 12.4542C15.5212 12.4542 15.054 12.4542 14.8123 12.4542C14.4418 14.1432 13.7974 12.8125 11.0747 12.4542C7.38533 12.0107 3.22878 12.9831 2.72935 17.2994C2.26214 21.5646 6.04814 23.5266 8.81917 25.0279C11.7513 26.6316 13.6524 27.3311 13.3463 29.6513C13.1852 31.0673 11.3808 31.9545 9.10917 31.8351C7.43366 31.6986 5.50038 31.1697 5.24261 29.9755C4.98484 28.6447 5.82259 27.7064 7.047 27.7917C6.99867 26.0174 6.1287 24.3625 3.98598 24.0554C1.42439 23.663 -0.508889 26.1368 0.119426 28.8495C0.796073 31.7839 5.48427 33.2511 8.98028 33.4217C13.2657 33.6947 18.5822 32.6198 19.42 28.2694C20.3866 23.2877 15.9079 21.5987 12.9596 19.8756Z" fill="#2A3C2C"/>
<path d="M25.5099 8.66678C27.8782 8.66678 29.8115 6.70481 29.8115 4.33339C29.8115 1.96197 27.8782 0 25.5099 0C23.1417 0 21.2084 1.96197 21.2084 4.33339C21.2084 6.70481 23.1417 8.66678 25.5099 8.66678Z" fill="#2A3C2C"/>
<path d="M29.8438 27.1438V12.5059C29.8438 12.5059 29.4572 12.5059 28.6839 12.5059C26.1062 14.9626 21.708 16.0545 19.2108 16.0545C19.2108 16.5492 19.2108 16.7369 19.2108 17.2828C22.4813 17.2828 22.9163 19.6542 22.9163 22.5204V27.1268C22.9163 29.993 22.4813 32.3644 19.2108 32.3644C19.2108 32.9103 19.2108 33.5928 19.2108 33.5928H33.4204C33.4204 33.5928 33.4204 33.3198 33.4204 32.3644C30.1016 32.3815 29.8438 30.01 29.8438 27.1438Z" fill="#2A3C2C"/>
<path d="M58.5852 18.7491C53.9937 16.0024 46.1478 12.9997 46.4539 7.81329C46.6311 3.97466 50.3204 2.06387 54.0581 2.4392C59.7935 3.01926 62.3873 6.60199 64.0145 14.3987H65.8833L64.9167 0.0166016C64.9167 0.0166016 64.2561 0.0166016 63.7084 0.0166016C62.8706 3.66757 60.6957 0.716085 54.042 0.136026C47.8877 -0.307549 38.5919 1.27908 38.0441 11.3278C37.6252 19.8239 45.2295 23.4749 51.2065 26.8017C57.7313 30.3162 61.9523 32.2952 61.0501 37.7375C60.454 41.1326 57.0708 43.9305 51.6254 43.6234C47.4044 43.3675 44.44 41.7638 43.8923 38.8294C43.1029 34.6155 45.89 33.0118 48.5483 33.1994C48.5483 30.7768 46.1961 27.3818 42.1523 26.9382C37.6897 26.4946 34.0648 30.3844 35.1442 35.9462C36.2881 41.9515 43.7795 45.4148 51.3837 45.9266C59.2296 46.4384 68.5899 42.924 69.8626 34.3596C71.2643 25.4027 64.385 22.0759 58.5852 18.7491Z" fill="#2A3C2C"/>
<path d="M81.7039 12.6416C75.4368 11.6009 70.3136 15.0301 69.3953 21.206C68.477 27.399 72.3758 32.3124 78.6428 33.3531C84.8615 34.3768 90.0008 30.9646 90.9191 24.7716C91.8213 18.5957 87.9226 13.6652 81.7039 12.6416ZM80.3022 31.8859C77.7568 31.92 76.2262 28.4567 76.1296 23.0997C76.0329 17.6915 77.4023 14.177 80.0122 14.1258C82.6061 14.0576 84.1366 17.5038 84.2332 22.9291C84.3138 28.3202 82.896 31.8177 80.3022 31.8859Z" fill="#2A3C2C"/>
<path d="M118.227 29.7541C117.808 30.5048 117.26 30.9142 116.551 30.6924C115.536 30.3854 115.504 28.867 115.504 26.7344V12.5059C115.504 12.5059 115.085 12.5059 114.376 12.5059C111.815 14.8602 108.045 15.9692 105.612 15.9692C105.612 16.4639 105.612 16.6345 105.612 17.1634C108.802 17.1634 108.721 19.4666 108.721 22.2816V24.5848C108.721 27.5192 107.884 29.8735 105.322 29.8735C102.47 29.8735 101.762 27.5192 101.762 24.8918V12.5059C101.762 12.5059 101.343 12.5059 100.634 12.5059C98.1206 14.8602 94.3346 15.9692 91.9019 15.9692C91.9019 16.4639 91.9019 16.6345 91.9019 17.1634C95.0918 17.1634 95.0112 19.4666 95.0112 22.2816V25.6084C95.0595 31.1701 98.0722 33.4733 102.277 33.4733C105.676 33.4733 107.69 31.8355 108.915 29.9247C109.462 32.4156 111.347 33.4733 114.167 33.4733C116.519 33.4733 117.985 32.4497 119 30.1806L118.227 29.7541Z" fill="#2A3C2C"/>
</svg>
